<?xml version="1.0" encoding="utf-8"?>
<svg id="master-artboard" viewBox="0 0 1400 980" version="1.1" xmlns="http://www.w3.org/2000/svg" x="0px" y="0px" style="enable-background:new 0 0 336 235.2;" width="1400px" height="980px"><rect id="ee-background" x="0" y="0" width="1400" height="980" style="fill: white; fill-opacity: 0; pointer-events: none;"/>














<g transform="matrix(7.000000476837158, 0, 0, 7.000000476837158, 8.972280502319336, 21.54155731201172)"><rect id="rect-1" x="0" y="0" width="200" height="130" style="fill: white; fill-opacity: 0; pointer-events: none;" transform="matrix(1, 0, 0, 1, -1, 10)"/><metadata id="CorelCorpID_0Corel-Layer"/><path d="M 98.18770599365234 10.068632125854492 L 190.46493530273438 10.068632125854492 L 190.46493530273438 18.371021270751953 C 190.46493530273438 18.371021270751953 144.37196350097656 13.754772186279297 144.20330810546875 40.11960983276367 L 144.2033233642578 70.35969543457031 L 98.7787094116211 70.0331802368164 L 98.18770599365234 10.068632125854492 Z" style="fill: rgb(255, 255, 255); fill-opacity: 1; stroke: rgb(0, 0, 0); stroke-opacity: 1; stroke-width: 0; paint-order: fill;" transform="matrix(-1, 0, 0, 1, 199.1499786376953, -2.957599639892578)"/><path d="M 126.61612701416016 37.18552017211914 L 127.006103515625 37.38050842285156" style="fill: rgb(255, 255, 255); fill-opacity: 1; stroke: rgb(0, 0, 0); stroke-opacity: 1; stroke-width: 0; paint-order: stroke;"/><path d="M 89.56805419921875 46.155052185058594" style="fill: rgb(255, 255, 255); fill-opacity: 1; stroke: rgb(0, 0, 0); stroke-opacity: 1; stroke-width: 0; paint-order: stroke;"/><path d="M 125.4461898803711 72.08870697021484 L 125.83616638183594 74.03860473632812" style="fill: rgb(255, 255, 255); fill-opacity: 1; stroke: rgb(0, 0, 0); stroke-opacity: 1; stroke-width: 0; paint-order: stroke;"/><path d="M 78.2586441040039 45.57008361816406" style="fill: rgb(255, 255, 255); fill-opacity: 1; stroke: rgb(0, 0, 0); stroke-opacity: 1; stroke-width: 0; paint-order: stroke;"/><path d="M 69.67908477783203 44.400146484375" style="fill: rgb(255, 255, 255); fill-opacity: 1; stroke: rgb(0, 0, 0); stroke-opacity: 1; stroke-width: 0; paint-order: fill;"/><path d="M 69.67908477783203 47.71497344970703 L 69.67908477783203 47.71497344970703" style="fill: rgb(255, 255, 255); fill-opacity: 1; stroke: rgb(0, 0, 0); stroke-opacity: 1; stroke-width: 0; paint-order: fill;"/><path d="M 59.34462356567383 50.83481216430664 L 59.73460388183594 48.68992233276367" style="fill: rgb(255, 255, 255); fill-opacity: 1; stroke: rgb(0, 0, 0); stroke-opacity: 1; stroke-width: 0; paint-order: stroke;"/><path style="fill: rgb(255, 255, 255); fill-opacity: 1; stroke: rgb(0, 0, 0); stroke-opacity: 1; stroke-width: 0; paint-order: stroke;"/><path d="M 61.79981994628906 70.89913177490234" style="fill: rgb(255, 255, 255); fill-opacity: 1; stroke: rgb(0, 0, 0); stroke-opacity: 1; stroke-width: 0; paint-order: stroke;"/><path d="M 45.8009033203125 34.78728485107422" style="fill: rgb(255, 255, 255); fill-opacity: 1; stroke: rgb(0, 0, 0); stroke-opacity: 1; stroke-width: 0; paint-order: stroke;"/></g><path d="M 98.18770599365234 10.068632125854492 L 190.46493530273438 10.068632125854492 L 190.46493530273438 18.371021270751953 C 190.46493530273438 18.371021270751953 144.37196350097656 13.754772186279297 144.20330810546875 40.11960983276367 L 144.2033233642578 70.35969543457031 L 98.7787094116211 70.0331802368164 L 98.18770599365234 10.068632125854492 Z" style="fill: rgb(255, 255, 255); fill-opacity: 1; stroke: rgb(0, 0, 0); stroke-opacity: 1; stroke-width: 0; paint-order: fill;" transform="matrix(-7.000000476837158, 0, 0, -7.000000476837158, 1403.0223388671875, 973.7771911621094)"/><path d="M 59.34462356567383 50.83481216430664 L 59.73460388183594 48.68992233276367" style="fill: rgb(255, 255, 255); fill-opacity: 1; stroke: rgb(0, 0, 0); stroke-opacity: 1; stroke-width: 0; paint-order: stroke;" transform="matrix(7.000000476837158, 0, 0, -7.000000476837158, -12.231613159179688, 867.1423034667969)"/><path d="M 61.79981994628906 70.89913177490234" style="fill: rgb(255, 255, 255); fill-opacity: 1; stroke: rgb(0, 0, 0); stroke-opacity: 1; stroke-width: 0; paint-order: stroke;" transform="matrix(7.000000476837158, 0, 0, -7.000000476837158, -12.231613159179688, 867.1423034667969)"/><path d="M 45.8009033203125 34.78728485107422" style="fill: rgb(255, 255, 255); fill-opacity: 1; stroke: rgb(0, 0, 0); stroke-opacity: 1; stroke-width: 0; paint-order: stroke;" transform="matrix(7.000000476837158, 0, 0, -7.000000476837158, -12.231613159179688, 867.1423034667969)"/><g transform="matrix(-7.000000476837158, 0, 0, 7.000000476837158, 1396.467529296875, 21.541580200195312)"><rect id="rect-2" x="0" y="0" width="200" height="130" style="fill: white; fill-opacity: 0; pointer-events: none;" transform="matrix(1, 0, 0, 1, -1, 10)"/><metadata id="metadata-1"/><path d="M 98.18770599365234 10.068632125854492 L 190.46493530273438 10.068632125854492 L 190.46493530273438 18.371021270751953 C 190.46493530273438 18.371021270751953 144.37196350097656 13.754772186279297 144.20330810546875 40.11960983276367 L 144.2033233642578 70.35969543457031 L 98.7787094116211 70.0331802368164 L 98.18770599365234 10.068632125854492 Z" style="fill: rgb(255, 255, 255); fill-opacity: 1; stroke: rgb(0, 0, 0); stroke-opacity: 1; stroke-width: 0; paint-order: fill;" transform="matrix(-1, 0, 0, 1, 199.1499786376953, -2.957599639892578)"/><path d="M 126.61612701416016 37.18552017211914 L 127.006103515625 37.38050842285156" style="fill: rgb(255, 255, 255); fill-opacity: 1; stroke: rgb(0, 0, 0); stroke-opacity: 1; stroke-width: 0; paint-order: stroke;"/><path d="M 89.56805419921875 46.155052185058594" style="fill: rgb(255, 255, 255); fill-opacity: 1; stroke: rgb(0, 0, 0); stroke-opacity: 1; stroke-width: 0; paint-order: stroke;"/><path d="M 125.4461898803711 72.08870697021484 L 125.83616638183594 74.03860473632812" style="fill: rgb(255, 255, 255); fill-opacity: 1; stroke: rgb(0, 0, 0); stroke-opacity: 1; stroke-width: 0; paint-order: stroke;"/><path d="M 78.2586441040039 45.57008361816406" style="fill: rgb(255, 255, 255); fill-opacity: 1; stroke: rgb(0, 0, 0); stroke-opacity: 1; stroke-width: 0; paint-order: stroke;"/><path d="M 69.67908477783203 44.400146484375" style="fill: rgb(255, 255, 255); fill-opacity: 1; stroke: rgb(0, 0, 0); stroke-opacity: 1; stroke-width: 0; paint-order: fill;"/><path d="M 69.67908477783203 47.71497344970703 L 69.67908477783203 47.71497344970703" style="fill: rgb(255, 255, 255); fill-opacity: 1; stroke: rgb(0, 0, 0); stroke-opacity: 1; stroke-width: 0; paint-order: fill;"/><path d="M 59.34462356567383 50.83481216430664 L 59.73460388183594 48.68992233276367" style="fill: rgb(255, 255, 255); fill-opacity: 1; stroke: rgb(0, 0, 0); stroke-opacity: 1; stroke-width: 0; paint-order: stroke;"/><path style="fill: rgb(255, 255, 255); fill-opacity: 1; stroke: rgb(0, 0, 0); stroke-opacity: 1; stroke-width: 0; paint-order: stroke;"/><path d="M 61.79981994628906 70.89913177490234" style="fill: rgb(255, 255, 255); fill-opacity: 1; stroke: rgb(0, 0, 0); stroke-opacity: 1; stroke-width: 0; paint-order: stroke;"/><path d="M 45.8009033203125 34.78728485107422" style="fill: rgb(255, 255, 255); fill-opacity: 1; stroke: rgb(0, 0, 0); stroke-opacity: 1; stroke-width: 0; paint-order: stroke;"/></g><path d="M 98.18770599365234 10.068632125854492 L 190.46493530273438 10.068632125854492 L 190.46493530273438 18.371021270751953 C 190.46493530273438 18.371021270751953 144.37196350097656 13.754772186279297 144.20330810546875 40.11960983276367 L 144.2033233642578 70.35969543457031 L 98.7787094116211 70.0331802368164 L 98.18770599365234 10.068632125854492 Z" style="fill: rgb(255, 255, 255); fill-opacity: 1; stroke: rgb(0, 0, 0); stroke-opacity: 1; stroke-width: 0; paint-order: fill;" transform="matrix(7.000000476837158, 0, 0, -7.000000476837158, 2.417491912841797, 973.7771911621094)"/><path d="M 59.34462356567383 50.83481216430664 L 59.73460388183594 48.68992233276367" style="fill: rgb(255, 255, 255); fill-opacity: 1; stroke: rgb(0, 0, 0); stroke-opacity: 1; stroke-width: 0; paint-order: stroke;" transform="matrix(-7.000000476837158, 0, 0, -7.000000476837158, 1417.6715087890625, 867.1423034667969)"/></svg>